<?xml version="1.0" encoding="UTF-8" standalone="no"?>
<!-- Created with Inkscape (http://www.inkscape.org/) -->

<svg
   xmlns:dc="http://purl.org/dc/elements/1.1/"
   xmlns:cc="http://creativecommons.org/ns#"
   xmlns:rdf="http://www.w3.org/1999/02/22-rdf-syntax-ns#"
   xmlns:svg="http://www.w3.org/2000/svg"
   xmlns="http://www.w3.org/2000/svg"
   xmlns:sodipodi="http://sodipodi.sourceforge.net/DTD/sodipodi-0.dtd"
   xmlns:inkscape="http://www.inkscape.org/namespaces/inkscape"
   width="210mm"
   height="297mm"
   viewBox="0 0 744.09448819 1052.3622047"
   id="svg2"
   version="1.1"
   inkscape:version="0.91 r13725"
   sodipodi:docname="cube.svg">
  <defs
     id="defs4">
    <inkscape:perspective
       sodipodi:type="inkscape:persp3d"
       inkscape:vp_x="-115.71429 : 526.1811 : 1"
       inkscape:vp_y="0 : 1000 : 0"
       inkscape:vp_z="628.3802 : 526.1811 : 1"
       inkscape:persp3d-origin="256.33295 : 350.7874 : 1"
       id="perspective4136" />
  </defs>
  <sodipodi:namedview
     id="base"
     pagecolor="#ffffff"
     bordercolor="#666666"
     borderopacity="1.0"
     inkscape:pageopacity="0.0"
     inkscape:pageshadow="2"
     inkscape:zoom="0.7"
     inkscape:cx="677.99847"
     inkscape:cy="641.79626"
     inkscape:document-units="px"
     inkscape:current-layer="layer1"
     showgrid="false"
     inkscape:window-width="1916"
     inkscape:window-height="1161"
     inkscape:window-x="0"
     inkscape:window-y="37"
     inkscape:window-maximized="0" />
  <metadata
     id="metadata7">
    <rdf:RDF>
      <cc:Work
         rdf:about="">
        <dc:format>image/svg+xml</dc:format>
        <dc:type
           rdf:resource="http://purl.org/dc/dcmitype/StillImage" />
        <dc:title></dc:title>
      </cc:Work>
    </rdf:RDF>
  </metadata>
  <g
     inkscape:label="Layer 1"
     inkscape:groupmode="layer"
     id="layer1">
    <g
       sodipodi:type="inkscape:box3d"
       id="g4138"
       style="opacity:1;fill:none;fill-opacity:1;stroke:#1a1a1a;stroke-width:12.80000019;stroke-linecap:round;stroke-linejoin:round;stroke-miterlimit:4;stroke-dasharray:none;stroke-opacity:1"
       inkscape:perspectiveID="#perspective4136"
       inkscape:corner0="0.86023618 : 0.38978124 : 0 : 1"
       inkscape:corner7="0.47973333 : 0.22543667 : 0.25 : 1">
      <path
         sodipodi:type="inkscape:box3dside"
         id="path4150"
         style="fill:#e9e9ff;fill-rule:evenodd;stroke:none;stroke-width:1px;stroke-linecap:butt;stroke-linejoin:round;stroke-opacity:1"
         inkscape:box3dsidetype="11"
         d="m 148.74467,424.58702 58.17508,-22.34844 0,95.0115 -58.17508,5.21664 z"
         points="206.91975,402.23858 206.91975,497.25008 148.74467,502.46672 148.74467,424.58702 " />
      <path
         sodipodi:type="inkscape:box3dside"
         id="path4140"
         style="fill:#353564;fill-rule:evenodd;stroke:none;stroke-width:1px;stroke-linecap:butt;stroke-linejoin:round;stroke-opacity:1"
         inkscape:box3dsidetype="6"
         d="m 84.285711,410.93363 0,88.34608 64.458959,3.18701 0,-77.8797 z"
         points="84.285711,499.27971 148.74467,502.46672 148.74467,424.58702 84.285711,410.93363 " />
      <path
         sodipodi:type="inkscape:box3dside"
         id="path4142"
         style="fill:#4d4d9f;fill-rule:evenodd;stroke:none;stroke-width:1px;stroke-linecap:butt;stroke-linejoin:round;stroke-opacity:1"
         inkscape:box3dsidetype="5"
         d="m 84.285711,410.93363 51.428569,-29.63506 71.20547,20.94001 -58.17508,22.34844 z"
         points="135.71428,381.29857 206.91975,402.23858 148.74467,424.58702 84.285711,410.93363 " />
      <path
         sodipodi:type="inkscape:box3dside"
         id="path4148"
         style="fill:#afafde;fill-rule:evenodd;stroke:none;stroke-width:1px;stroke-linecap:butt;stroke-linejoin:round;stroke-opacity:1"
         inkscape:box3dsidetype="13"
         d="m 84.285711,499.27971 51.428569,-6.9175 71.20547,4.88787 -58.17508,5.21664 z"
         points="135.71428,492.36221 206.91975,497.25008 148.74467,502.46672 84.285711,499.27971 " />
      <path
         sodipodi:type="inkscape:box3dside"
         id="path4146"
         style="fill:#d7d7ff;fill-rule:evenodd;stroke:none;stroke-width:1px;stroke-linecap:butt;stroke-linejoin:round;stroke-opacity:1"
         inkscape:box3dsidetype="14"
         d="m 135.71428,381.29857 0,111.06364 71.20547,4.88787 0,-95.0115 z"
         points="135.71428,492.36221 206.91975,497.25008 206.91975,402.23858 135.71428,381.29857 " />
      <path
         sodipodi:type="inkscape:box3dside"
         id="path4144"
         style="fill:#8686bf;fill-rule:evenodd;stroke:none;stroke-width:1px;stroke-linecap:butt;stroke-linejoin:round;stroke-opacity:1"
         inkscape:box3dsidetype="3"
         d="m 84.285711,410.93363 51.428569,-29.63506 0,111.06364 -51.428569,6.9175 z"
         points="135.71428,381.29857 135.71428,492.36221 84.285711,499.27971 84.285711,410.93363 " />
    </g>
    <path
       style="opacity:1;fill:none;fill-opacity:1;stroke:#1a1a1a;stroke-width:5;stroke-linecap:round;stroke-linejoin:round;stroke-miterlimit:4;stroke-dasharray:none;stroke-opacity:1"
       d="m 280.00002,242.36221 321.4285,0 c 17.41145,0 31.4286,14.01715 31.4286,31.4286 l 0,24.28566 c 0,17.41144 -14.01715,31.4286 -31.4286,31.4286 l -321.4285,0 c -6.89027,0 -63.24898,37.80486 -68.4178,34.0729 -7.89258,-5.69854 36.9892,-54.98033 36.9892,-65.5015 l 0,-24.28566 c 0,-17.41145 14.01715,-31.4286 31.4286,-31.4286 z"
       id="rect4152"
       inkscape:connector-curvature="0"
       sodipodi:nodetypes="ssssssssss" />
    <text
       xml:space="preserve"
       style="font-style:normal;font-weight:normal;font-size:40px;line-height:125%;font-family:Sans;letter-spacing:0px;word-spacing:0px;fill:#000000;fill-opacity:1;stroke:none;stroke-width:1px;stroke-linecap:butt;stroke-linejoin:miter;stroke-opacity:1"
       x="285.71429"
       y="299.50507"
       id="text4155"
       sodipodi:linespacing="125%"><tspan
         sodipodi:role="line"
         id="tspan4157"
         x="285.71429"
         y="299.50507">Title: My Post</tspan></text>
    <text
       xml:space="preserve"
       style="font-style:normal;font-weight:normal;font-size:40px;line-height:125%;font-family:Sans;letter-spacing:0px;word-spacing:0px;fill:#000000;fill-opacity:1;stroke:none;stroke-width:1px;stroke-linecap:butt;stroke-linejoin:miter;stroke-opacity:1"
       x="288.57144"
       y="586.64789"
       id="text4163"
       sodipodi:linespacing="125%"><tspan
         sodipodi:role="line"
         id="tspan4165"
         x="288.57144"
         y="586.64789">img: foobar.png</tspan></text>
    <path
       style="opacity:1;fill:none;fill-opacity:1;stroke:#1a1a1a;stroke-width:5;stroke-linecap:round;stroke-linejoin:round;stroke-miterlimit:4;stroke-dasharray:none;stroke-opacity:1"
       d="m 292.85716,389.50507 381.42853,0 c 17.41145,0 31.4286,14.01715 31.4286,31.4286 l 0,28.57138 c 0,17.41145 -14.01715,31.4286 -31.4286,31.4286 l -381.42853,0 c -17.41145,0 -31.4286,-14.01715 -31.4286,-31.4286 l -47.58929,-13.48213 47.58929,-14.55357 0,-0.53568 c 0,-17.41145 14.01715,-31.4286 31.4286,-31.4286 z"
       id="rect4167"
       inkscape:connector-curvature="0"
       sodipodi:nodetypes="sssssssccss" />
    <text
       xml:space="preserve"
       style="font-style:normal;font-weight:normal;font-size:40px;line-height:125%;font-family:Sans;letter-spacing:0px;word-spacing:0px;fill:#000000;fill-opacity:1;stroke:none;stroke-width:1px;stroke-linecap:butt;stroke-linejoin:miter;stroke-opacity:1"
       x="294.28571"
       y="449.50507"
       id="text4169"
       sodipodi:linespacing="125%"><tspan
         sodipodi:role="line"
         id="tspan4171"
         x="294.28571"
         y="449.50507">edit.url: /edit/1234</tspan></text>
    <path
       sodipodi:nodetypes="ssssssssss"
       inkscape:connector-curvature="0"
       id="path4174"
       d="m 280.00002,616.70901 321.4285,0 c 17.41145,0 31.4286,-14.01715 31.4286,-31.4286 l 0,-24.28566 c 0,-17.41144 -14.01715,-31.4286 -31.4286,-31.4286 l -321.4285,0 c -6.89027,0 -63.24898,-37.80486 -68.4178,-34.0729 -7.89258,5.69854 36.9892,54.98033 36.9892,65.5015 l 0,24.28566 c 0,17.41145 14.01715,31.4286 31.4286,31.4286 z"
       style="opacity:1;fill:none;fill-opacity:1;stroke:#1a1a1a;stroke-width:5;stroke-linecap:round;stroke-linejoin:round;stroke-miterlimit:4;stroke-dasharray:none;stroke-opacity:1" />
  </g>
</svg>
